<svg xmlns="http://www.w3.org/2000/svg" xmlns:xlink="http://www.w3.org/1999/xlink" width="11520" zoomAndPan="magnify" viewBox="0 0 8640 2592.000001" height="3456" preserveAspectRatio="xMidYMid meet" version="1.0"><defs><g/><clipPath id="c296a2a33f"><path d="M 1.667969 0 L 8638.332031 0 L 8638.332031 2591 L 1.667969 2591 Z M 1.667969 0 " clip-rule="nonzero"/></clipPath><clipPath id="70bba080ad"><path d="M 2587 814 L 5476 814 L 5476 2487.390625 L 2587 2487.390625 Z M 2587 814 " clip-rule="nonzero"/></clipPath></defs><g clip-path="url(#c296a2a33f)"><path fill="#ffffff" d="M 1.667969 0 L 8638.332031 0 L 8638.332031 2591 L 1.667969 2591 Z M 1.667969 0 " fill-opacity="1" fill-rule="nonzero"/><path fill="#878937" d="M 1.667969 0 L 8638.332031 0 L 8638.332031 2591 L 1.667969 2591 Z M 1.667969 0 " fill-opacity="1" fill-rule="nonzero"/></g><g clip-path="url(#70bba080ad)"><path fill="#1e1e1e" d="M 5408.964844 2253.578125 C 5408.964844 2345.59375 5333.679688 2420.878906 5241.664062 2420.878906 L 2821.390625 2420.878906 C 2729.375 2420.878906 2654.089844 2345.59375 2654.089844 2253.578125 L 2654.089844 1049.019531 C 2654.089844 957.003906 2729.375 881.71875 2821.390625 881.71875 L 5241.664062 881.71875 C 5333.679688 881.71875 5408.964844 957.003906 5408.964844 1049.019531 Z M 5241.664062 814.800781 L 2821.390625 814.800781 C 2692.257812 814.800781 2587.171875 919.886719 2587.171875 1049.019531 L 2587.171875 2253.578125 C 2587.171875 2382.714844 2692.257812 2487.800781 2821.390625 2487.800781 L 5241.664062 2487.800781 C 5370.796875 2487.800781 5475.882812 2382.714844 5475.882812 2253.578125 L 5475.882812 1049.019531 C 5475.882812 919.886719 5370.796875 814.800781 5241.664062 814.800781 " fill-opacity="1" fill-rule="nonzero"/></g><path fill="#ffc100" d="M 4887.414062 1122.648438 C 4873.082031 1164.125 4827.726562 1186.171875 4786.25 1171.835938 C 4744.816406 1157.503906 4722.773438 1112.105469 4737.105469 1070.671875 C 4751.441406 1029.238281 4796.792969 1007.195312 4838.269531 1021.527344 C 4879.703125 1035.863281 4901.75 1081.214844 4887.414062 1122.648438 Z M 3276.804688 1171.835938 C 3235.371094 1186.171875 3189.972656 1164.125 3175.640625 1122.648438 C 3161.304688 1081.214844 3183.351562 1035.863281 3224.785156 1021.527344 C 3266.21875 1007.195312 3311.613281 1029.238281 3325.949219 1070.671875 C 3340.28125 1112.105469 3318.238281 1157.503906 3276.804688 1171.835938 Z M 5241.664062 881.71875 L 2821.390625 881.71875 C 2729.375 881.71875 2654.089844 957.003906 2654.089844 1049.019531 L 2654.089844 2253.578125 C 2654.089844 2345.59375 2729.375 2420.878906 2821.390625 2420.878906 L 5241.664062 2420.878906 C 5333.679688 2420.878906 5408.964844 2345.59375 5408.964844 2253.578125 L 5408.964844 1049.019531 C 5408.964844 957.003906 5333.679688 881.71875 5241.664062 881.71875 " fill-opacity="1" fill-rule="nonzero"/><path fill="#ffc100" d="M 2709.859375 2298.191406 L 2709.859375 1093.632812 C 2709.859375 1001.617188 2785.140625 926.332031 2877.15625 926.332031 L 5297.429688 926.332031 C 5324.050781 926.332031 5349.144531 932.78125 5371.539062 943.976562 C 5340.78125 906.074219 5293.945312 881.71875 5241.664062 881.71875 L 2821.390625 881.71875 C 2729.375 881.71875 2654.089844 957.003906 2654.089844 1049.019531 L 2654.089844 2253.578125 C 2654.089844 2318.972656 2692.210938 2375.785156 2747.28125 2403.277344 C 2723.929688 2374.480469 2709.859375 2337.925781 2709.859375 2298.191406 " fill-opacity="1" fill-rule="nonzero"/><path fill="#1e1e1e" d="M 4869.640625 1104.523438 C 4857.351562 1140.074219 4818.535156 1158.941406 4782.9375 1146.65625 C 4767.910156 1141.425781 4755.882812 1131.449219 4747.910156 1118.988281 C 4743.074219 1105.046875 4742.640625 1089.449219 4747.867188 1074.375 C 4760.152344 1038.824219 4798.972656 1019.960938 4834.523438 1032.246094 C 4849.597656 1037.472656 4861.621094 1047.449219 4869.59375 1059.910156 C 4874.429688 1073.851562 4874.867188 1089.449219 4869.640625 1104.523438 Z M 4838.269531 1021.527344 C 4796.792969 1007.195312 4751.441406 1029.238281 4737.105469 1070.671875 C 4722.773438 1112.105469 4744.816406 1157.503906 4786.25 1171.835938 C 4827.726562 1186.171875 4873.082031 1164.125 4887.414062 1122.648438 C 4901.75 1081.214844 4879.703125 1035.863281 4838.269531 1021.527344 " fill-opacity="1" fill-rule="nonzero"/><path fill="#1e1e1e" d="M 3193.457031 1059.910156 C 3201.433594 1047.449219 3213.457031 1037.472656 3228.53125 1032.246094 C 3264.082031 1019.960938 3302.902344 1038.824219 3315.1875 1074.375 C 3320.414062 1089.449219 3319.980469 1105.046875 3315.144531 1118.988281 C 3307.171875 1131.449219 3295.144531 1141.425781 3280.113281 1146.65625 C 3244.519531 1158.941406 3205.703125 1140.074219 3193.414062 1104.523438 C 3188.1875 1089.449219 3188.621094 1073.851562 3193.457031 1059.910156 Z M 3175.640625 1122.648438 C 3189.972656 1164.125 3235.371094 1186.171875 3276.804688 1171.835938 C 3318.238281 1157.503906 3340.28125 1112.105469 3325.949219 1070.671875 C 3311.613281 1029.238281 3266.21875 1007.195312 3224.785156 1021.527344 C 3183.351562 1035.863281 3161.304688 1081.214844 3175.640625 1122.648438 " fill-opacity="1" fill-rule="nonzero"/><path fill="#1e1e1e" d="M 3307.605469 1091.757812 C 3491.503906 843.773438 3675.40625 595.742188 3859.304688 347.710938 C 3885.574219 312.289062 3911.847656 276.871094 3938.117188 241.492188 C 3971.402344 196.574219 3896.117188 153.269531 3863.179688 197.664062 C 3679.28125 445.695312 3495.382812 693.726562 3311.484375 941.710938 C 3285.210938 977.132812 3258.941406 1012.554688 3232.667969 1047.972656 C 3199.382812 1092.847656 3274.667969 1136.199219 3307.605469 1091.757812 " fill-opacity="1" fill-rule="nonzero"/><path fill="#ffc100" d="M 3314.839844 1095.984375 C 3437.4375 930.644531 3560.039062 765.304688 3682.636719 599.96875 C 3743.9375 517.277344 3805.238281 434.628906 3866.535156 351.980469 C 3892.152344 317.386719 3931.410156 279.308594 3948.398438 240.140625 C 3954.28125 226.546875 3956.589844 214.523438 3950.144531 200.667969 C 3935.851562 169.867188 3893.375 162.679688 3867.144531 181.761719 C 3838.738281 202.5 3817.347656 245.542969 3796.871094 273.164062 C 3766.199219 314.511719 3735.570312 355.855469 3704.898438 397.203125 C 3582.300781 562.542969 3459.699219 727.882812 3337.101562 893.222656 C 3304.296875 937.441406 3270.355469 981.054688 3238.59375 1026.058594 C 3225.566406 1044.53125 3210.84375 1060.738281 3218.511719 1084.222656 C 3232.582031 1127.484375 3287.171875 1124.914062 3313.53125 1097.683594 C 3321.023438 1089.972656 3309.175781 1078.121094 3301.679688 1085.878906 C 3256.023438 1112.933594 3235.414062 1101.691406 3239.902344 1052.199219 C 3244.300781 1046.316406 3248.660156 1040.394531 3253.015625 1034.511719 C 3263.296875 1012.769531 3284.644531 991.902344 3298.980469 972.515625 C 3325.292969 937.09375 3351.523438 901.628906 3377.835938 866.210938 C 3432.558594 792.40625 3487.28125 718.601562 3542 644.796875 C 3594.542969 573.914062 3647.085938 503.074219 3699.628906 432.1875 C 3725.898438 396.765625 3752.171875 361.347656 3778.441406 325.925781 C 3810.8125 282.316406 3838.695312 227.246094 3889.277344 206.464844 C 3921.996094 180.714844 3935.851562 190.996094 3930.886719 237.265625 C 3924.308594 246.109375 3917.773438 254.953125 3911.191406 263.800781 C 3898.035156 281.53125 3884.921875 299.21875 3871.808594 316.953125 C 3843.316406 355.335938 3814.863281 393.71875 3786.414062 432.101562 C 3733.871094 502.941406 3681.328125 573.828125 3628.789062 644.667969 C 3519.300781 792.273438 3409.859375 939.925781 3300.375 1087.535156 C 3293.96875 1096.203125 3308.476562 1104.566406 3314.839844 1095.984375 " fill-opacity="1" fill-rule="nonzero"/><path fill="#1e1e1e" d="M 4755.449219 1091.757812 C 4571.546875 843.773438 4387.648438 595.742188 4203.75 347.710938 C 4177.480469 312.289062 4151.207031 276.871094 4124.9375 241.492188 C 4091.695312 196.574219 4166.9375 153.269531 4199.871094 197.664062 C 4383.773438 445.695312 4567.671875 693.726562 4751.570312 941.710938 C 4777.839844 977.132812 4804.113281 1012.554688 4830.382812 1047.972656 C 4863.625 1092.847656 4788.386719 1136.199219 4755.449219 1091.757812 " fill-opacity="1" fill-rule="nonzero"/><path fill="#ffc100" d="M 4762.679688 1087.535156 C 4653.195312 939.925781 4543.753906 792.273438 4434.265625 644.667969 C 4381.722656 573.828125 4329.183594 502.941406 4276.640625 432.101562 C 4250.367188 396.679688 4224.097656 361.214844 4197.824219 325.796875 C 4184.710938 308.105469 4171.597656 290.375 4158.441406 272.6875 C 4149.683594 260.878906 4140.925781 249.03125 4132.167969 237.265625 C 4127.203125 190.996094 4141.054688 180.714844 4173.820312 206.464844 C 4221.917969 226.242188 4247.316406 275.605469 4278.03125 317.039062 C 4306.484375 355.421875 4334.933594 393.804688 4363.425781 432.1875 C 4415.96875 503.074219 4468.511719 573.914062 4521.054688 644.796875 C 4573.597656 715.640625 4626.140625 786.523438 4678.683594 857.363281 C 4704.953125 892.785156 4731.222656 928.207031 4757.496094 963.671875 C 4772.832031 984.320312 4788.125 1004.972656 4803.460938 1025.625 C 4810.039062 1034.511719 4816.574219 1043.355469 4823.152344 1052.199219 C 4827.640625 1101.691406 4807.03125 1112.933594 4761.375 1085.878906 C 4753.878906 1078.121094 4742.027344 1089.929688 4749.523438 1097.683594 C 4773.878906 1122.824219 4816.878906 1127.964844 4838.96875 1095.070312 C 4869.335938 1049.847656 4795.269531 986.628906 4771.917969 955.21875 C 4651.539062 792.796875 4531.117188 630.421875 4410.695312 468.042969 C 4349.398438 385.351562 4288.097656 302.703125 4226.796875 220.011719 C 4203.097656 188.035156 4171.160156 150.785156 4129.03125 182.023438 C 4084.242188 215.265625 4126.765625 257.917969 4150.554688 289.984375 C 4211.855469 372.632812 4273.152344 455.324219 4334.453125 537.96875 C 4472.386719 723.960938 4610.324219 909.996094 4748.214844 1095.984375 C 4754.578125 1104.523438 4769.085938 1096.203125 4762.679688 1087.535156 " fill-opacity="1" fill-rule="nonzero"/><path fill="#1e1e1e" d="M 4031.527344 346.359375 C 3945.4375 346.359375 3875.378906 276.304688 3875.378906 190.214844 C 3875.378906 104.125 3945.4375 34.066406 4031.527344 34.066406 C 4117.617188 34.066406 4187.671875 104.125 4187.671875 190.214844 C 4187.671875 276.304688 4117.617188 346.359375 4031.527344 346.359375 " fill-opacity="1" fill-rule="nonzero"/><path fill="#ffc100" d="M 4165.367188 190.214844 C 4165.367188 264.148438 4105.460938 324.054688 4031.527344 324.054688 C 3957.59375 324.054688 3897.6875 264.148438 3897.6875 190.214844 C 3897.6875 116.277344 3957.59375 56.371094 4031.527344 56.371094 C 4105.460938 56.371094 4165.367188 116.277344 4165.367188 190.214844 " fill-opacity="1" fill-rule="nonzero"/><path fill="#ffc100" d="M 3919.992188 212.519531 C 3919.992188 138.585938 3979.898438 78.679688 4053.832031 78.679688 C 4085.117188 78.679688 4113.828125 89.484375 4136.613281 107.476562 C 4112.082031 76.414062 4074.179688 56.371094 4031.527344 56.371094 C 3957.59375 56.371094 3897.6875 116.277344 3897.6875 190.214844 C 3897.6875 232.867188 3917.683594 270.769531 3948.792969 295.296875 C 3930.796875 272.511719 3919.992188 243.800781 3919.992188 212.519531 " fill-opacity="1" fill-rule="nonzero"/><g fill="#000000" fill-opacity="1"><g transform="translate(3156.168809, 1466.443666)"><g><path d="M 54.859375 0 L 22.171875 0 L 22.171875 -170.65625 L 60.8125 -170.65625 L 129.34375 -60.703125 L 132.375 -61.171875 L 132.375 -170.65625 L 164.828125 -170.65625 L 164.828125 0 L 130.265625 0 L 57.78125 -117.4375 L 54.859375 -116.96875 Z M 54.859375 0 "/></g></g><g transform="translate(3343.284822, 1466.443666)"><g><path d="M 93.03125 2.453125 C 77.394531 2.453125 63.601562 -0.734375 51.65625 -7.109375 C 39.707031 -13.492188 30.347656 -23.242188 23.578125 -36.359375 C 16.804688 -49.472656 13.421875 -65.796875 13.421875 -85.328125 C 13.421875 -104.859375 16.804688 -121.179688 23.578125 -134.296875 C 30.347656 -147.410156 39.707031 -157.15625 51.65625 -163.53125 C 63.601562 -169.914062 77.394531 -173.109375 93.03125 -173.109375 C 108.675781 -173.109375 122.453125 -169.9375 134.359375 -163.59375 C 146.265625 -157.25 155.582031 -147.5 162.3125 -134.34375 C 169.039062 -121.195312 172.40625 -104.859375 172.40625 -85.328125 C 172.40625 -65.796875 169.039062 -49.453125 162.3125 -36.296875 C 155.582031 -23.148438 146.265625 -13.40625 134.359375 -7.0625 C 122.453125 -0.71875 108.675781 2.453125 93.03125 2.453125 Z M 93.03125 -26.84375 C 107.507812 -26.84375 118.5625 -31.492188 126.1875 -40.796875 C 133.8125 -50.097656 137.625 -64.941406 137.625 -85.328125 C 137.625 -105.710938 133.8125 -120.570312 126.1875 -129.90625 C 118.5625 -139.25 107.507812 -143.921875 93.03125 -143.921875 C 78.476562 -143.921875 67.367188 -139.25 59.703125 -129.90625 C 52.035156 -120.570312 48.203125 -105.710938 48.203125 -85.328125 C 48.203125 -64.941406 52.035156 -50.097656 59.703125 -40.796875 C 67.367188 -31.492188 78.476562 -26.84375 93.03125 -26.84375 Z M 93.03125 -26.84375 "/></g></g><g transform="translate(3529.23355, 1466.443666)"><g><path d="M 136.8125 -170.65625 L 136.8125 -142.296875 L 87.546875 -142.296875 L 87.546875 0 L 53.921875 0 L 53.921875 -142.296875 L 4.671875 -142.296875 L 4.671875 -170.65625 Z M 136.8125 -170.65625 "/></g></g><g transform="translate(3670.708666, 1466.443666)"><g><path d="M 55.90625 0 L 22.171875 0 L 22.171875 -170.65625 L 55.90625 -170.65625 Z M 55.90625 0 "/></g></g><g transform="translate(3748.916857, 1466.443666)"><g><path d="M 93.265625 2.453125 C 77.546875 2.453125 63.691406 -0.8125 51.703125 -7.34375 C 39.722656 -13.882812 30.347656 -23.710938 23.578125 -36.828125 C 16.804688 -49.941406 13.421875 -66.109375 13.421875 -85.328125 C 13.421875 -104.546875 16.804688 -120.710938 23.578125 -133.828125 C 30.347656 -146.941406 39.722656 -156.765625 51.703125 -163.296875 C 63.691406 -169.835938 77.546875 -173.109375 93.265625 -173.109375 C 109.679688 -173.109375 123.628906 -169.894531 135.109375 -163.46875 C 146.585938 -157.050781 154.78125 -147.269531 159.6875 -134.125 L 135.0625 -119.0625 L 132.140625 -119.1875 C 128.484375 -128.050781 123.519531 -134.410156 117.25 -138.265625 C 110.988281 -142.117188 102.992188 -144.046875 93.265625 -144.046875 C 79.097656 -144.046875 68.046875 -139.351562 60.109375 -129.96875 C 52.171875 -120.59375 48.203125 -105.710938 48.203125 -85.328125 C 48.203125 -65.015625 52.171875 -50.171875 60.109375 -40.796875 C 68.046875 -31.421875 79.097656 -26.734375 93.265625 -26.734375 C 115.441406 -26.734375 129.019531 -37.507812 134 -59.0625 L 136.921875 -59.0625 L 161.78125 -46.109375 C 157.113281 -29.921875 149.140625 -17.78125 137.859375 -9.6875 C 126.578125 -1.59375 111.710938 2.453125 93.265625 2.453125 Z M 93.265625 2.453125 "/></g></g><g transform="translate(3916.30573, 1466.443666)"><g><path d="M 55.90625 -74.9375 L 55.90625 -28.25 L 137.390625 -28.25 L 137.390625 0 L 22.171875 0 L 22.171875 -170.65625 L 135.515625 -170.65625 L 135.515625 -142.40625 L 55.90625 -142.40625 L 55.90625 -102.484375 L 125.484375 -102.484375 L 125.484375 -74.9375 Z M 55.90625 -74.9375 "/></g></g><g transform="translate(4063.033633, 1466.443666)"><g/></g><g transform="translate(4119.413567, 1466.443666)"><g><path d="M 22.171875 0 L 22.171875 -170.65625 L 95.015625 -170.65625 C 105.523438 -170.65625 114.414062 -169 121.6875 -165.6875 C 128.96875 -162.382812 134.472656 -157.675781 138.203125 -151.5625 C 141.941406 -145.457031 143.8125 -138.242188 143.8125 -129.921875 C 143.8125 -122.367188 141.984375 -115.710938 138.328125 -109.953125 C 134.671875 -104.203125 129.414062 -99.570312 122.5625 -96.0625 L 122.5625 -93.625 C 133.300781 -90.820312 141.585938 -85.722656 147.421875 -78.328125 C 153.265625 -70.929688 156.1875 -61.863281 156.1875 -51.125 C 156.1875 -34.78125 151.265625 -22.171875 141.421875 -13.296875 C 131.578125 -4.429688 116.96875 0 97.59375 0 Z M 88.015625 -102.609375 C 103.734375 -102.609375 111.59375 -109.6875 111.59375 -123.84375 C 111.59375 -131.082031 109.644531 -136.472656 105.75 -140.015625 C 101.863281 -143.554688 95.953125 -145.328125 88.015625 -145.328125 L 55.90625 -145.328125 L 55.90625 -102.609375 Z M 94.203125 -26.734375 C 112.796875 -26.734375 122.09375 -35.175781 122.09375 -52.0625 C 122.09375 -69.03125 112.796875 -77.515625 94.203125 -77.515625 L 55.90625 -77.515625 L 55.90625 -26.734375 Z M 94.203125 -26.734375 "/></g></g><g transform="translate(4286.335526, 1466.443666)"><g><path d="M 93.03125 2.453125 C 77.394531 2.453125 63.601562 -0.734375 51.65625 -7.109375 C 39.707031 -13.492188 30.347656 -23.242188 23.578125 -36.359375 C 16.804688 -49.472656 13.421875 -65.796875 13.421875 -85.328125 C 13.421875 -104.859375 16.804688 -121.179688 23.578125 -134.296875 C 30.347656 -147.410156 39.707031 -157.15625 51.65625 -163.53125 C 63.601562 -169.914062 77.394531 -173.109375 93.03125 -173.109375 C 108.675781 -173.109375 122.453125 -169.9375 134.359375 -163.59375 C 146.265625 -157.25 155.582031 -147.5 162.3125 -134.34375 C 169.039062 -121.195312 172.40625 -104.859375 172.40625 -85.328125 C 172.40625 -65.796875 169.039062 -49.453125 162.3125 -36.296875 C 155.582031 -23.148438 146.265625 -13.40625 134.359375 -7.0625 C 122.453125 -0.71875 108.675781 2.453125 93.03125 2.453125 Z M 93.03125 -26.84375 C 107.507812 -26.84375 118.5625 -31.492188 126.1875 -40.796875 C 133.8125 -50.097656 137.625 -64.941406 137.625 -85.328125 C 137.625 -105.710938 133.8125 -120.570312 126.1875 -129.90625 C 118.5625 -139.25 107.507812 -143.921875 93.03125 -143.921875 C 78.476562 -143.921875 67.367188 -139.25 59.703125 -129.90625 C 52.035156 -120.570312 48.203125 -105.710938 48.203125 -85.328125 C 48.203125 -64.941406 52.035156 -50.097656 59.703125 -40.796875 C 67.367188 -31.492188 78.476562 -26.84375 93.03125 -26.84375 Z M 93.03125 -26.84375 "/></g></g><g transform="translate(4472.284254, 1466.443666)"><g><path d="M 163.765625 0 L 128.28125 0 L 115.453125 -39.34375 L 50.078125 -39.34375 L 37.234375 0 L 2.5625 0 L 61.515625 -170.65625 L 104.828125 -170.65625 Z M 81.125 -135.0625 L 59.1875 -67.703125 L 106.109375 -67.703125 L 84.046875 -135.0625 Z M 81.125 -135.0625 "/></g></g><g transform="translate(4638.622569, 1466.443666)"><g><path d="M 22.171875 0 L 22.171875 -170.65625 L 90.703125 -170.65625 C 108.367188 -170.65625 121.691406 -166.585938 130.671875 -158.453125 C 139.660156 -150.328125 144.15625 -139.101562 144.15625 -124.78125 C 144.15625 -114.4375 141.53125 -105.957031 136.28125 -99.34375 C 131.03125 -92.726562 123.191406 -87.664062 112.765625 -84.15625 L 112.765625 -81.703125 C 118.128906 -79.367188 122.460938 -75.90625 125.765625 -71.3125 C 129.078125 -66.726562 132.210938 -59.921875 135.171875 -50.890625 L 152.21875 0 L 117.546875 0 L 100.859375 -51.015625 C 99.140625 -56.148438 97.207031 -60.132812 95.0625 -62.96875 C 92.925781 -65.8125 90.203125 -67.875 86.890625 -69.15625 C 83.585938 -70.445312 79.289062 -71.09375 74 -71.09375 L 55.90625 -71.09375 L 55.90625 0 Z M 86.609375 -97.8125 C 102.953125 -97.8125 111.125 -105.441406 111.125 -120.703125 C 111.125 -136.179688 102.953125 -143.921875 86.609375 -143.921875 L 55.90625 -143.921875 L 55.90625 -97.8125 Z M 86.609375 -97.8125 "/></g></g><g transform="translate(4798.190624, 1466.443666)"><g><path d="M 83.578125 -170.65625 C 111.285156 -170.65625 132.429688 -163.492188 147.015625 -149.171875 C 161.609375 -134.859375 168.90625 -113.578125 168.90625 -85.328125 C 168.90625 -57.160156 161.609375 -35.894531 147.015625 -21.53125 C 132.429688 -7.175781 111.285156 0 83.578125 0 L 22.171875 0 L 22.171875 -170.65625 Z M 81.59375 -28.359375 C 99.175781 -28.359375 112.328125 -32.851562 121.046875 -41.84375 C 129.765625 -50.832031 134.125 -65.328125 134.125 -85.328125 C 134.125 -105.328125 129.765625 -119.820312 121.046875 -128.8125 C 112.328125 -137.800781 99.175781 -142.296875 81.59375 -142.296875 L 55.90625 -142.296875 L 55.90625 -28.359375 Z M 81.59375 -28.359375 "/></g></g></g><g fill="#000000" fill-opacity="1"><g transform="translate(2951.310352, 2135.185636)"><g><path d="M 55.90625 -74.9375 L 55.90625 -28.25 L 137.390625 -28.25 L 137.390625 0 L 22.171875 0 L 22.171875 -170.65625 L 135.515625 -170.65625 L 135.515625 -142.40625 L 55.90625 -142.40625 L 55.90625 -102.484375 L 125.484375 -102.484375 L 125.484375 -74.9375 Z M 55.90625 -74.9375 "/></g></g><g transform="translate(3098.038256, 2135.185636)"><g><path d="M 88.59375 0 L 50.078125 0 L 2.453125 -128.75 L 36.296875 -128.75 L 68.28125 -37 L 70.96875 -37 L 103.078125 -128.75 L 136.109375 -128.75 Z M 88.59375 0 "/></g></g><g transform="translate(3236.478425, 2135.185636)"><g><path d="M 127.234375 -57.078125 L 44.46875 -57.078125 C 45.40625 -45.867188 48.597656 -37.71875 54.046875 -32.625 C 59.492188 -27.53125 66.925781 -24.984375 76.34375 -24.984375 C 83.738281 -24.984375 89.726562 -26.363281 94.3125 -29.125 C 98.90625 -31.882812 102.601562 -36.066406 105.40625 -41.671875 L 107.859375 -41.671875 L 129.34375 -27.890625 C 125.132812 -18.867188 118.789062 -11.554688 110.3125 -5.953125 C 101.832031 -0.347656 90.507812 2.453125 76.34375 2.453125 C 63.03125 2.453125 51.53125 -0.0703125 41.84375 -5.125 C 32.15625 -10.1875 24.6875 -17.71875 19.4375 -27.71875 C 14.1875 -37.71875 11.5625 -49.914062 11.5625 -64.3125 C 11.5625 -78.945312 14.320312 -91.28125 19.84375 -101.3125 C 25.363281 -111.351562 32.832031 -118.84375 42.25 -123.78125 C 51.664062 -128.726562 62.25 -131.203125 74 -131.203125 C 92.21875 -131.203125 106.171875 -126.375 115.859375 -116.71875 C 125.546875 -107.070312 130.390625 -92.910156 130.390625 -74.234375 C 130.390625 -67.460938 130.15625 -62.210938 129.6875 -58.484375 Z M 99.453125 -77.96875 C 99.140625 -87.78125 96.863281 -94.921875 92.625 -99.390625 C 88.382812 -103.867188 82.175781 -106.109375 74 -106.109375 C 57.664062 -106.109375 48.054688 -96.726562 45.171875 -77.96875 Z M 99.453125 -77.96875 "/></g></g><g transform="translate(3376.436068, 2135.185636)"><g><path d="M 18.5625 0 L 18.5625 -128.75 L 49.609375 -128.75 L 49.609375 -109.84375 L 52.0625 -109.265625 C 60.070312 -123.890625 73.066406 -131.203125 91.046875 -131.203125 C 105.910156 -131.203125 116.820312 -127.15625 123.78125 -119.0625 C 130.75 -110.96875 134.234375 -99.175781 134.234375 -83.6875 L 134.234375 0 L 101.90625 0 L 101.90625 -79.71875 C 101.90625 -88.28125 100.191406 -94.445312 96.765625 -98.21875 C 93.347656 -102 87.863281 -103.890625 80.3125 -103.890625 C 71.050781 -103.890625 63.832031 -100.890625 58.65625 -94.890625 C 53.476562 -88.898438 50.890625 -79.488281 50.890625 -66.65625 L 50.890625 0 Z M 18.5625 0 "/></g></g><g transform="translate(3527.249476, 2135.185636)"><g><path d="M 88.828125 -30.703125 L 97.234375 -6.765625 C 93.734375 -3.890625 89.335938 -1.632812 84.046875 0 C 78.753906 1.632812 72.757812 2.453125 66.0625 2.453125 C 52.132812 2.453125 41.550781 -1.335938 34.3125 -8.921875 C 27.082031 -16.515625 23.46875 -27.546875 23.46875 -42.015625 L 23.46875 -103.1875 L 3.859375 -103.1875 L 3.859375 -128.875 L 23.46875 -128.875 L 23.46875 -153.96875 L 55.796875 -159.21875 L 55.796875 -128.875 L 92.328125 -128.875 L 92.328125 -103.1875 L 55.796875 -103.1875 L 55.796875 -44.359375 C 55.796875 -37.972656 57.117188 -33.320312 59.765625 -30.40625 C 62.410156 -27.488281 66.265625 -26.03125 71.328125 -26.03125 C 77.078125 -26.03125 82.09375 -27.585938 86.375 -30.703125 Z M 88.828125 -30.703125 "/></g></g><g transform="translate(3627.285922, 2135.185636)"><g><path d="M 60.234375 2.453125 C 51.441406 2.453125 43.382812 1.421875 36.0625 -0.640625 C 28.75 -2.703125 22.503906 -5.539062 17.328125 -9.15625 C 12.160156 -12.78125 8.332031 -16.925781 5.84375 -21.59375 L 23.8125 -40.96875 L 26.265625 -40.96875 C 30.546875 -35.207031 35.601562 -30.890625 41.4375 -28.015625 C 47.269531 -25.140625 53.613281 -23.703125 60.46875 -23.703125 C 66.769531 -23.703125 71.515625 -24.828125 74.703125 -27.078125 C 77.898438 -29.335938 79.5 -32.566406 79.5 -36.765625 C 79.5 -40.035156 78.347656 -42.78125 76.046875 -45 C 73.753906 -47.21875 70.039062 -48.945312 64.90625 -50.1875 L 47.859375 -54.28125 C 35.097656 -57.3125 25.78125 -61.957031 19.90625 -68.21875 C 14.03125 -74.488281 11.09375 -82.445312 11.09375 -92.09375 C 11.09375 -100.113281 13.132812 -107.078125 17.21875 -112.984375 C 21.300781 -118.898438 27.054688 -123.414062 34.484375 -126.53125 C 41.921875 -129.644531 50.582031 -131.203125 60.46875 -131.203125 C 72.0625 -131.203125 81.671875 -129.53125 89.296875 -126.1875 C 96.921875 -122.84375 102.875 -118.367188 107.15625 -112.765625 L 89.875 -94.078125 L 87.546875 -94.078125 C 83.960938 -98.128906 79.929688 -101.085938 75.453125 -102.953125 C 70.984375 -104.816406 65.988281 -105.75 60.46875 -105.75 C 47.707031 -105.75 41.328125 -101.78125 41.328125 -93.84375 C 41.328125 -90.5 42.507812 -87.773438 44.875 -85.671875 C 47.25 -83.578125 51.4375 -81.867188 57.4375 -80.546875 L 73.3125 -77.046875 C 86.382812 -74.242188 95.9375 -69.75 101.96875 -63.5625 C 108 -57.375 111.015625 -49.066406 111.015625 -38.640625 C 111.015625 -30.460938 108.988281 -23.257812 104.9375 -17.03125 C 100.894531 -10.8125 95.054688 -6.007812 87.421875 -2.625 C 79.796875 0.757812 70.734375 2.453125 60.234375 2.453125 Z M 60.234375 2.453125 "/></g></g><g transform="translate(3745.998951, 2135.185636)"><g/></g><g transform="translate(3802.378885, 2135.185636)"><g><path d="M 34.671875 -144.15625 C 28.828125 -144.15625 24.078125 -145.925781 20.421875 -149.46875 C 16.765625 -153.007812 14.9375 -157.582031 14.9375 -163.1875 C 14.9375 -168.707031 16.765625 -173.238281 20.421875 -176.78125 C 24.078125 -180.320312 28.828125 -182.09375 34.671875 -182.09375 C 38.554688 -182.09375 42.015625 -181.273438 45.046875 -179.640625 C 48.085938 -178.015625 50.441406 -175.78125 52.109375 -172.9375 C 53.785156 -170.09375 54.625 -166.84375 54.625 -163.1875 C 54.625 -159.53125 53.785156 -156.257812 52.109375 -153.375 C 50.441406 -150.5 48.085938 -148.242188 45.046875 -146.609375 C 42.015625 -144.972656 38.554688 -144.15625 34.671875 -144.15625 Z M 18.5625 0 L 18.5625 -128.75 L 50.890625 -128.75 L 50.890625 0 Z M 18.5625 0 "/></g></g><g transform="translate(3871.715698, 2135.185636)"><g><path d="M 18.5625 0 L 18.5625 -128.75 L 49.609375 -128.75 L 49.609375 -109.84375 L 52.0625 -109.265625 C 60.070312 -123.890625 73.066406 -131.203125 91.046875 -131.203125 C 105.910156 -131.203125 116.820312 -127.15625 123.78125 -119.0625 C 130.75 -110.96875 134.234375 -99.175781 134.234375 -83.6875 L 134.234375 0 L 101.90625 0 L 101.90625 -79.71875 C 101.90625 -88.28125 100.191406 -94.445312 96.765625 -98.21875 C 93.347656 -102 87.863281 -103.890625 80.3125 -103.890625 C 71.050781 -103.890625 63.832031 -100.890625 58.65625 -94.890625 C 53.476562 -88.898438 50.890625 -79.488281 50.890625 -66.65625 L 50.890625 0 Z M 18.5625 0 "/></g></g><g transform="translate(4022.529105, 2135.185636)"><g/></g><g transform="translate(4078.909039, 2135.185636)"><g><path d="M 28.484375 54.625 C 22.953125 54.625 17.945312 54.195312 13.46875 53.34375 C 9 52.488281 5.363281 51.359375 2.5625 49.953125 L 7.703125 23.8125 L 9.8125 23.109375 C 11.75 24.117188 14.15625 24.9375 17.03125 25.5625 C 19.914062 26.1875 22.875 26.5 25.90625 26.5 C 31.125 26.5 35.460938 25.816406 38.921875 24.453125 C 42.390625 23.085938 45.328125 20.828125 47.734375 17.671875 C 50.148438 14.523438 52.289062 10.148438 54.15625 4.546875 L 2.796875 -128.75 L 36.65625 -128.75 L 68.640625 -39.21875 L 71.4375 -39.21875 L 102.609375 -128.75 L 135.515625 -128.75 L 83.8125 8.046875 C 79.6875 19.097656 75.148438 27.988281 70.203125 34.71875 C 65.265625 41.457031 59.429688 46.457031 52.703125 49.71875 C 45.972656 52.988281 37.898438 54.625 28.484375 54.625 Z M 28.484375 54.625 "/></g></g><g transform="translate(4217.115752, 2135.185636)"><g><path d="M 74.828125 2.453125 C 62.210938 2.453125 51.140625 -0.132812 41.609375 -5.3125 C 32.078125 -10.488281 24.6875 -18.078125 19.4375 -28.078125 C 14.1875 -38.078125 11.5625 -50.15625 11.5625 -64.3125 C 11.5625 -78.476562 14.1875 -90.578125 19.4375 -100.609375 C 24.6875 -110.648438 32.078125 -118.257812 41.609375 -123.4375 C 51.140625 -128.613281 62.210938 -131.203125 74.828125 -131.203125 C 87.429688 -131.203125 98.5 -128.613281 108.03125 -123.4375 C 117.5625 -118.257812 124.972656 -110.648438 130.265625 -100.609375 C 135.554688 -90.578125 138.203125 -78.476562 138.203125 -64.3125 C 138.203125 -50.15625 135.554688 -38.078125 130.265625 -28.078125 C 124.972656 -18.078125 117.5625 -10.488281 108.03125 -5.3125 C 98.5 -0.132812 87.429688 2.453125 74.828125 2.453125 Z M 74.828125 -24.984375 C 94.828125 -24.984375 104.828125 -38.09375 104.828125 -64.3125 C 104.828125 -77.9375 102.257812 -87.914062 97.125 -94.25 C 91.988281 -100.59375 84.554688 -103.765625 74.828125 -103.765625 C 54.828125 -103.765625 44.828125 -90.613281 44.828125 -64.3125 C 44.828125 -38.09375 54.828125 -24.984375 74.828125 -24.984375 Z M 74.828125 -24.984375 "/></g></g><g transform="translate(4366.761871, 2135.185636)"><g><path d="M 58.953125 2.453125 C 44.472656 2.453125 33.789062 -1.492188 26.90625 -9.390625 C 20.019531 -17.296875 16.578125 -28.640625 16.578125 -43.421875 L 16.578125 -128.75 L 48.90625 -128.75 L 48.90625 -47.515625 C 48.90625 -39.648438 50.597656 -33.90625 53.984375 -30.28125 C 57.367188 -26.664062 62.601562 -24.859375 69.6875 -24.859375 C 78.632812 -24.859375 85.597656 -27.796875 90.578125 -33.671875 C 95.554688 -39.546875 98.046875 -48.789062 98.046875 -61.40625 L 98.046875 -128.75 L 130.390625 -128.75 L 130.390625 0 L 99.34375 0 L 99.34375 -18.90625 L 96.890625 -19.5 C 92.765625 -12.101562 87.722656 -6.59375 81.765625 -2.96875 C 75.816406 0.644531 68.210938 2.453125 58.953125 2.453125 Z M 58.953125 2.453125 "/></g></g><g transform="translate(4515.70762, 2135.185636)"><g><path d="M 18.5625 0 L 18.5625 -128.75 L 49.953125 -128.75 L 49.953125 -109.609375 L 52.40625 -109.140625 C 55.519531 -116.296875 59.601562 -121.546875 64.65625 -124.890625 C 69.71875 -128.242188 75.867188 -129.921875 83.109375 -129.921875 C 90.421875 -129.921875 95.984375 -128.675781 99.796875 -126.1875 L 94.3125 -98.28125 L 91.859375 -97.8125 C 89.765625 -98.675781 87.742188 -99.300781 85.796875 -99.6875 C 83.847656 -100.070312 81.472656 -100.265625 78.671875 -100.265625 C 69.648438 -100.265625 62.765625 -97.09375 58.015625 -90.75 C 53.265625 -84.414062 50.890625 -74.242188 50.890625 -60.234375 L 50.890625 0 Z M 18.5625 0 "/></g></g><g transform="translate(4616.677896, 2135.185636)"><g/></g><g transform="translate(4673.057829, 2135.185636)"><g><path d="M 50.1875 2.453125 C 41.945312 2.453125 34.789062 0.9375 28.71875 -2.09375 C 22.644531 -5.132812 17.972656 -9.59375 14.703125 -15.46875 C 11.441406 -21.34375 9.8125 -28.40625 9.8125 -36.65625 C 9.8125 -44.28125 11.441406 -50.679688 14.703125 -55.859375 C 17.972656 -61.035156 23.03125 -65.273438 29.875 -68.578125 C 36.726562 -71.890625 45.679688 -74.4375 56.734375 -76.21875 C 64.429688 -77.46875 70.285156 -78.832031 74.296875 -80.3125 C 78.304688 -81.789062 81.007812 -83.460938 82.40625 -85.328125 C 83.8125 -87.191406 84.515625 -89.566406 84.515625 -92.453125 C 84.515625 -96.578125 83.070312 -99.726562 80.1875 -101.90625 C 77.3125 -104.082031 72.523438 -105.171875 65.828125 -105.171875 C 58.671875 -105.171875 51.863281 -103.578125 45.40625 -100.390625 C 38.945312 -97.203125 33.34375 -93 28.59375 -87.78125 L 26.265625 -87.78125 L 12.71875 -108.203125 C 19.257812 -115.441406 27.238281 -121.082031 36.65625 -125.125 C 46.070312 -129.175781 56.34375 -131.203125 67.46875 -131.203125 C 84.507812 -131.203125 96.84375 -127.582031 104.46875 -120.34375 C 112.09375 -113.113281 115.90625 -102.84375 115.90625 -89.53125 L 115.90625 -33.625 C 115.90625 -27.863281 118.4375 -24.984375 123.5 -24.984375 C 125.445312 -24.984375 127.351562 -25.332031 129.21875 -26.03125 L 130.859375 -25.5625 L 133.1875 -3.03125 C 131.394531 -1.863281 128.90625 -0.910156 125.71875 -0.171875 C 122.53125 0.566406 119.03125 0.9375 115.21875 0.9375 C 107.507812 0.9375 101.492188 -0.539062 97.171875 -3.5 C 92.859375 -6.457031 89.765625 -11.085938 87.890625 -17.390625 L 85.453125 -17.625 C 79.140625 -4.238281 67.382812 2.453125 50.1875 2.453125 Z M 60.46875 -21.71875 C 67.9375 -21.71875 73.90625 -24.222656 78.375 -29.234375 C 82.851562 -34.253906 85.09375 -41.238281 85.09375 -50.1875 L 85.09375 -63.265625 L 82.875 -63.734375 C 80.925781 -62.179688 78.375 -60.878906 75.21875 -59.828125 C 72.070312 -58.773438 67.546875 -57.742188 61.640625 -56.734375 C 54.628906 -55.566406 49.585938 -53.5625 46.515625 -50.71875 C 43.441406 -47.875 41.90625 -43.847656 41.90625 -38.640625 C 41.90625 -33.109375 43.539062 -28.90625 46.8125 -26.03125 C 50.082031 -23.15625 54.632812 -21.71875 60.46875 -21.71875 Z M 60.46875 -21.71875 "/></g></g><g transform="translate(4808.81324, 2135.185636)"><g><path d="M 18.5625 0 L 18.5625 -128.75 L 49.953125 -128.75 L 49.953125 -109.609375 L 52.40625 -109.140625 C 55.519531 -116.296875 59.601562 -121.546875 64.65625 -124.890625 C 69.71875 -128.242188 75.867188 -129.921875 83.109375 -129.921875 C 90.421875 -129.921875 95.984375 -128.675781 99.796875 -126.1875 L 94.3125 -98.28125 L 91.859375 -97.8125 C 89.765625 -98.675781 87.742188 -99.300781 85.796875 -99.6875 C 83.847656 -100.070312 81.472656 -100.265625 78.671875 -100.265625 C 69.648438 -100.265625 62.765625 -97.09375 58.015625 -90.75 C 53.265625 -84.414062 50.890625 -74.242188 50.890625 -60.234375 L 50.890625 0 Z M 18.5625 0 "/></g></g><g transform="translate(4909.783515, 2135.185636)"><g><path d="M 127.234375 -57.078125 L 44.46875 -57.078125 C 45.40625 -45.867188 48.597656 -37.71875 54.046875 -32.625 C 59.492188 -27.53125 66.925781 -24.984375 76.34375 -24.984375 C 83.738281 -24.984375 89.726562 -26.363281 94.3125 -29.125 C 98.90625 -31.882812 102.601562 -36.066406 105.40625 -41.671875 L 107.859375 -41.671875 L 129.34375 -27.890625 C 125.132812 -18.867188 118.789062 -11.554688 110.3125 -5.953125 C 101.832031 -0.347656 90.507812 2.453125 76.34375 2.453125 C 63.03125 2.453125 51.53125 -0.0703125 41.84375 -5.125 C 32.15625 -10.1875 24.6875 -17.71875 19.4375 -27.71875 C 14.1875 -37.71875 11.5625 -49.914062 11.5625 -64.3125 C 11.5625 -78.945312 14.320312 -91.28125 19.84375 -101.3125 C 25.363281 -111.351562 32.832031 -118.84375 42.25 -123.78125 C 51.664062 -128.726562 62.25 -131.203125 74 -131.203125 C 92.21875 -131.203125 106.171875 -126.375 115.859375 -116.71875 C 125.546875 -107.070312 130.390625 -92.910156 130.390625 -74.234375 C 130.390625 -67.460938 130.15625 -62.210938 129.6875 -58.484375 Z M 99.453125 -77.96875 C 99.140625 -87.78125 96.863281 -94.921875 92.625 -99.390625 C 88.382812 -103.867188 82.175781 -106.109375 74 -106.109375 C 57.664062 -106.109375 48.054688 -96.726562 45.171875 -77.96875 Z M 99.453125 -77.96875 "/></g></g><g transform="translate(5049.741158, 2135.185636)"><g><path d="M 50.1875 2.453125 C 41.945312 2.453125 34.789062 0.9375 28.71875 -2.09375 C 22.644531 -5.132812 17.972656 -9.59375 14.703125 -15.46875 C 11.441406 -21.34375 9.8125 -28.40625 9.8125 -36.65625 C 9.8125 -44.28125 11.441406 -50.679688 14.703125 -55.859375 C 17.972656 -61.035156 23.03125 -65.273438 29.875 -68.578125 C 36.726562 -71.890625 45.679688 -74.4375 56.734375 -76.21875 C 64.429688 -77.46875 70.285156 -78.832031 74.296875 -80.3125 C 78.304688 -81.789062 81.007812 -83.460938 82.40625 -85.328125 C 83.8125 -87.191406 84.515625 -89.566406 84.515625 -92.453125 C 84.515625 -96.578125 83.070312 -99.726562 80.1875 -101.90625 C 77.3125 -104.082031 72.523438 -105.171875 65.828125 -105.171875 C 58.671875 -105.171875 51.863281 -103.578125 45.40625 -100.390625 C 38.945312 -97.203125 33.34375 -93 28.59375 -87.78125 L 26.265625 -87.78125 L 12.71875 -108.203125 C 19.257812 -115.441406 27.238281 -121.082031 36.65625 -125.125 C 46.070312 -129.175781 56.34375 -131.203125 67.46875 -131.203125 C 84.507812 -131.203125 96.84375 -127.582031 104.46875 -120.34375 C 112.09375 -113.113281 115.90625 -102.84375 115.90625 -89.53125 L 115.90625 -33.625 C 115.90625 -27.863281 118.4375 -24.984375 123.5 -24.984375 C 125.445312 -24.984375 127.351562 -25.332031 129.21875 -26.03125 L 130.859375 -25.5625 L 133.1875 -3.03125 C 131.394531 -1.863281 128.90625 -0.910156 125.71875 -0.171875 C 122.53125 0.566406 119.03125 0.9375 115.21875 0.9375 C 107.507812 0.9375 101.492188 -0.539062 97.171875 -3.5 C 92.859375 -6.457031 89.765625 -11.085938 87.890625 -17.390625 L 85.453125 -17.625 C 79.140625 -4.238281 67.382812 2.453125 50.1875 2.453125 Z M 60.46875 -21.71875 C 67.9375 -21.71875 73.90625 -24.222656 78.375 -29.234375 C 82.851562 -34.253906 85.09375 -41.238281 85.09375 -50.1875 L 85.09375 -63.265625 L 82.875 -63.734375 C 80.925781 -62.179688 78.375 -60.878906 75.21875 -59.828125 C 72.070312 -58.773438 67.546875 -57.742188 61.640625 -56.734375 C 54.628906 -55.566406 49.585938 -53.5625 46.515625 -50.71875 C 43.441406 -47.875 41.90625 -43.847656 41.90625 -38.640625 C 41.90625 -33.109375 43.539062 -28.90625 46.8125 -26.03125 C 50.082031 -23.15625 54.632812 -21.71875 60.46875 -21.71875 Z M 60.46875 -21.71875 "/></g></g></g></svg>